# xmcd
#
# Track frame offsets: 
#        150
#        10709
#        22128
#        32929
#        43497
#        55890
#        67274
#        78763
#        90376
#        100092
#        109614
#        118396
#        130604
#        142988
#        155069
#        167432
#        179078
#        190000
#        199774
#        209641
#        221169
#        228359
#        240954
#        252459
#        264037
#        277263
#        290550
#        303091
#        313587
#        325871
#        337603
#        350462
#
# Disc length: 4809 seconds
#
# Revision: 0
# Processed by: cddbd v1.5.2PL0 Copyright (c) Steve Scherf et al.
# Submitted via: ExactAudioCopyFreeDBPlugin 1.0
#
DISCID=d512c720
DTITLE=George Jones - Birth Of A Legend 1954-1961 [CD1]
DYEAR=2017
DGENRE=Country
TTITLE0=No Money In This Deal
TTITLE1=No Money In This Deal (alt)
TTITLE2=For Sale Or For Lease (take 1)
TTITLE3=For Sale Or For Lease (take 2)
TTITLE4=Play It Cool Man - Play It Cool
TTITLE5=You're In My Heart
TTITLE6=If You Were Mine
TTITLE7=Wrong About You
TTITLE8=You All Goodnight
TTITLE9=Hold Everything
TTITLE10=Hold Everything (alt)
TTITLE11=Heartbroken Me
TTITLE12=Heartbroken Me (alt)
TTITLE13=Let Him Know
TTITLE14=My Sweet Imogene
TTITLE15=What's Wrong With You
TTITLE16=What's Wrong With You (alt)
TTITLE17=Painless Heart
TTITLE18=Still Hurtin'
TTITLE19=Settle Down
TTITLE20=Dancing Mexican Boy
TTITLE21=Why Baby Why
TTITLE22=Mexican Boogie (Boogie Woogie Mexican Boy)
TTITLE23=What Am I Worth
TTITLE24=Seasons Of My Heart
TTITLE25=Seasons Of My Heart (alt)
TTITLE26=What Am I Worth (remake)
TTITLE27=It's OK
TTITLE28=Your Heart
TTITLE29=Dancing Mexican Boy (alt)
TTITLE30=You Never Thought
TTITLE31=I'm Ragged But I'm Right
EXTD=
EXTT0=
EXTT1=
EXTT2=
EXTT3=
EXTT4=
EXTT5=
EXTT6=
EXTT7=
EXTT8=
EXTT9=
EXTT10=
EXTT11=
EXTT12=
EXTT13=
EXTT14=
EXTT15=
EXTT16=
EXTT17=
EXTT18=
EXTT19=
EXTT20=
EXTT21=
EXTT22=
EXTT23=
EXTT24=
EXTT25=
EXTT26=
EXTT27=
EXTT28=
EXTT29=
EXTT30=
EXTT31=
PLAYORDER=
